<svg width="918" height="14" viewBox="0 0 918 14" fill="none" xmlns="http://www.w3.org/2000/svg">
<path d="M10.3163 9.12726C9.68995 9.12726 9.16797 8.83188 9.16797 8.47742V0.664493C9.16797 0.310031 9.68995 0.0146484 10.3163 0.0146484C10.9427 0.0146484 11.4647 0.310031 11.4647 0.664493V8.47742C11.4647 8.83188 10.9427 9.12726 10.3163 9.12726Z" fill="#545454"/>
<path d="M19.4726 9.12726C18.8462 9.12726 18.3242 8.83188 18.3242 8.47742V0.664493C18.3242 0.310031 18.8462 0.0146484 19.4726 0.0146484C20.0989 0.0146484 20.6209 0.310031 20.6209 0.664493V8.47742C20.6209 8.83188 20.0989 9.12726 19.4726 9.12726Z" fill="#545454"/>
<path d="M1.14835 14C0.521978 14 0 13.7046 0 13.3502V0.67817C0 0.323709 0.521978 0.0283203 1.14835 0.0283203C1.77472 0.0283203 2.2967 0.323709 2.2967 0.67817V13.3502C2.2967 13.7046 1.77472 14 1.14835 14Z" fill="#545454"/>
<path d="M28.6249 9.12726C27.9985 9.12726 27.4766 8.83188 27.4766 8.47742V0.664493C27.4766 0.310031 27.9985 0.0146484 28.6249 0.0146484C29.2513 0.0146484 29.7733 0.310031 29.7733 0.664493V8.47742C29.7733 8.83188 29.2513 9.12726 28.6249 9.12726Z" fill="#545454"/>
<path d="M37.7851 9.12726C37.1587 9.12726 36.6367 8.83188 36.6367 8.47742V0.664493C36.6367 0.310031 37.1587 0.0146484 37.7851 0.0146484C38.4114 0.0146484 38.9334 0.310031 38.9334 0.664493V8.47742C38.9334 8.83188 38.4114 9.12726 37.7851 9.12726Z" fill="#545454"/>
<path d="M46.953 13.3502C46.3267 13.3502 45.8047 13.0548 45.8047 12.7003V0.67817C45.8047 0.323709 46.3267 0.0283203 46.953 0.0283203C47.5794 0.0283203 48.1014 0.323709 48.1014 0.67817V12.7003C48.1014 13.0548 47.5794 13.3502 46.953 13.3502Z" fill="#545454"/>
<path d="M56.0898 9.12726C55.4634 9.12726 54.9414 8.83188 54.9414 8.47742V0.664493C54.9414 0.310031 55.4634 0.0146484 56.0898 0.0146484C56.7161 0.0146484 57.2381 0.310031 57.2381 0.664493V8.47742C57.2381 8.83188 56.7161 9.12726 56.0898 9.12726Z" fill="#545454"/>
<path d="M65.246 9.12726C64.6196 9.12726 64.0977 8.83188 64.0977 8.47742V0.664493C64.0977 0.310031 64.6196 0.0146484 65.246 0.0146484C65.8724 0.0146484 66.3944 0.310031 66.3944 0.664493V8.47742C66.3944 8.83188 65.8724 9.12726 65.246 9.12726Z" fill="#545454"/>
<path d="M74.4101 9.12726C73.7837 9.12726 73.2617 8.83188 73.2617 8.47742V0.664493C73.2617 0.310031 73.7837 0.0146484 74.4101 0.0146484C75.0364 0.0146484 75.5584 0.310031 75.5584 0.664493V8.47742C75.5584 8.83188 75.0364 9.12726 74.4101 9.12726Z" fill="#545454"/>
<path d="M83.5624 9.12726C82.936 9.12726 82.4141 8.83188 82.4141 8.47742V0.664493C82.4141 0.310031 82.936 0.0146484 83.5624 0.0146484C84.1888 0.0146484 84.7108 0.310031 84.7108 0.664493V8.47742C84.7108 8.83188 84.1888 9.12726 83.5624 9.12726Z" fill="#545454"/>
<path d="M92.7304 13.3502C92.104 13.3502 91.582 13.0548 91.582 12.7003V0.67817C91.582 0.323709 92.104 0.0283203 92.7304 0.0283203C93.3568 0.0283203 93.8787 0.323709 93.8787 0.67817V12.7003C93.8787 13.0548 93.3568 13.3502 92.7304 13.3502Z" fill="#545454"/>
<path d="M101.891 9.12726C101.264 9.12726 100.742 8.83188 100.742 8.47742V0.664493C100.742 0.310031 101.264 0.0146484 101.891 0.0146484C102.517 0.0146484 103.039 0.310031 103.039 0.664493V8.47742C103.039 8.83188 102.517 9.12726 101.891 9.12726Z" fill="#545454"/>
<path d="M111.043 9.12726C110.417 9.12726 109.895 8.83188 109.895 8.47742V0.664493C109.895 0.310031 110.417 0.0146484 111.043 0.0146484C111.669 0.0146484 112.191 0.310031 112.191 0.664493V8.47742C112.191 8.83188 111.669 9.12726 111.043 9.12726Z" fill="#545454"/>
<path d="M120.18 9.12726C119.553 9.12726 119.031 8.83188 119.031 8.47742V0.664493C119.031 0.310031 119.553 0.0146484 120.18 0.0146484C120.806 0.0146484 121.328 0.310031 121.328 0.664493V8.47742C121.328 8.83188 120.806 9.12726 120.18 9.12726Z" fill="#545454"/>
<path d="M129.348 9.12726C128.721 9.12726 128.199 8.83188 128.199 8.47742V0.664493C128.199 0.310031 128.721 0.0146484 129.348 0.0146484C129.974 0.0146484 130.496 0.310031 130.496 0.664493V8.47742C130.496 8.83188 129.974 9.12726 129.348 9.12726Z" fill="#545454"/>
<path d="M138.5 13.3502C137.874 13.3502 137.352 13.0548 137.352 12.7003V0.67817C137.352 0.323709 137.874 0.0283203 138.5 0.0283203C139.126 0.0283203 139.648 0.323709 139.648 0.67817V12.7003C139.648 13.0548 139.126 13.3502 138.5 13.3502Z" fill="#545454"/>
<path d="M147.664 9.12726C147.038 9.12726 146.516 8.83188 146.516 8.47742V0.664493C146.516 0.310031 147.038 0.0146484 147.664 0.0146484C148.29 0.0146484 148.812 0.310031 148.812 0.664493V8.47742C148.812 8.83188 148.29 9.12726 147.664 9.12726Z" fill="#545454"/>
<path d="M156.82 9.12726C156.194 9.12726 155.672 8.83188 155.672 8.47742V0.664493C155.672 0.310031 156.194 0.0146484 156.82 0.0146484C157.447 0.0146484 157.969 0.310031 157.969 0.664493V8.47742C157.969 8.83188 157.447 9.12726 156.82 9.12726Z" fill="#545454"/>
<path d="M165.984 9.12726C165.358 9.12726 164.836 8.83188 164.836 8.47742V0.664493C164.836 0.310031 165.358 0.0146484 165.984 0.0146484C166.611 0.0146484 167.133 0.310031 167.133 0.664493V8.47742C167.133 8.83188 166.611 9.12726 165.984 9.12726Z" fill="#545454"/>
<path d="M175.164 9.12726C174.538 9.12726 174.016 8.83188 174.016 8.47742V0.664493C174.016 0.310031 174.538 0.0146484 175.164 0.0146484C175.79 0.0146484 176.312 0.310031 176.312 0.664493V8.47742C176.312 8.83188 175.79 9.12726 175.164 9.12726Z" fill="#545454"/>
<path d="M184.301 13.3502C183.674 13.3502 183.152 13.0548 183.152 12.7003V0.67817C183.152 0.323709 183.674 0.0283203 184.301 0.0283203C184.927 0.0283203 185.449 0.323709 185.449 0.67817V12.7003C185.449 13.0548 184.927 13.3502 184.301 13.3502Z" fill="#545454"/>
<path d="M193.441 9.12726C192.815 9.12726 192.293 8.83188 192.293 8.47742V0.664493C192.293 0.310031 192.815 0.0146484 193.441 0.0146484C194.068 0.0146484 194.59 0.310031 194.59 0.664493V8.47742C194.59 8.83188 194.068 9.12726 193.441 9.12726Z" fill="#545454"/>
<path d="M202.613 9.12726C201.987 9.12726 201.465 8.83188 201.465 8.47742V0.664493C201.465 0.310031 201.987 0.0146484 202.613 0.0146484C203.24 0.0146484 203.762 0.310031 203.762 0.664493V8.47742C203.762 8.83188 203.24 9.12726 202.613 9.12726Z" fill="#545454"/>
<path d="M211.773 9.12726C211.147 9.12726 210.625 8.83188 210.625 8.47742V0.664493C210.625 0.310031 211.147 0.0146484 211.773 0.0146484C212.4 0.0146484 212.922 0.310031 212.922 0.664493V8.47742C212.922 8.83188 212.4 9.12726 211.773 9.12726Z" fill="#545454"/>
<path d="M220.926 9.12726C220.299 9.12726 219.777 8.83188 219.777 8.47742V0.664493C219.777 0.310031 220.299 0.0146484 220.926 0.0146484C221.552 0.0146484 222.074 0.310031 222.074 0.664493V8.47742C222.074 8.83188 221.552 9.12726 220.926 9.12726Z" fill="#545454"/>
<path d="M230.094 13.3502C229.467 13.3502 228.945 13.0548 228.945 12.7003V0.67817C228.945 0.323709 229.467 0.0283203 230.094 0.0283203C230.72 0.0283203 231.242 0.323709 231.242 0.67817V12.7003C231.242 13.0548 230.72 13.3502 230.094 13.3502Z" fill="#545454"/>
<path d="M239.246 9.12726C238.62 9.12726 238.098 8.83188 238.098 8.47742V0.664493C238.098 0.310031 238.62 0.0146484 239.246 0.0146484C239.872 0.0146484 240.394 0.310031 240.394 0.664493V8.47742C240.394 8.83188 239.872 9.12726 239.246 9.12726Z" fill="#545454"/>
<path d="M248.379 9.12726C247.752 9.12726 247.23 8.83188 247.23 8.47742V0.664493C247.23 0.310031 247.752 0.0146484 248.379 0.0146484C249.005 0.0146484 249.527 0.310031 249.527 0.664493V8.47742C249.527 8.83188 249.005 9.12726 248.379 9.12726Z" fill="#545454"/>
<path d="M257.543 9.12726C256.917 9.12726 256.395 8.83188 256.395 8.47742V0.664493C256.395 0.310031 256.917 0.0146484 257.543 0.0146484C258.169 0.0146484 258.691 0.310031 258.691 0.664493V8.47742C258.691 8.83188 258.169 9.12726 257.543 9.12726Z" fill="#545454"/>
<path d="M266.707 9.12726C266.081 9.12726 265.559 8.83188 265.559 8.47742V0.664493C265.559 0.310031 266.081 0.0146484 266.707 0.0146484C267.333 0.0146484 267.855 0.310031 267.855 0.664493V8.47742C267.855 8.83188 267.333 9.12726 266.707 9.12726Z" fill="#545454"/>
<path d="M275.863 13.3502C275.237 13.3502 274.715 13.0548 274.715 12.7003V0.67817C274.715 0.323709 275.237 0.0283203 275.863 0.0283203C276.49 0.0283203 277.012 0.323709 277.012 0.67817V12.7003C277.012 13.0548 276.49 13.3502 275.863 13.3502Z" fill="#545454"/>
<path d="M285.031 9.12726C284.405 9.12726 283.883 8.83188 283.883 8.47742V0.664493C283.883 0.310031 284.405 0.0146484 285.031 0.0146484C285.658 0.0146484 286.18 0.310031 286.18 0.664493V8.47742C286.18 8.83188 285.658 9.12726 285.031 9.12726Z" fill="#545454"/>
<path d="M303.34 9.12726C302.713 9.12726 302.191 8.83188 302.191 8.47742V0.664493C302.191 0.310031 302.713 0.0146484 303.34 0.0146484C303.966 0.0146484 304.488 0.310031 304.488 0.664493V8.47742C304.488 8.83188 303.966 9.12726 303.34 9.12726Z" fill="#545454"/>
<path d="M312.476 9.12726C311.85 9.12726 311.328 8.83188 311.328 8.47742V0.664493C311.328 0.310031 311.85 0.0146484 312.476 0.0146484C313.103 0.0146484 313.625 0.310031 313.625 0.664493V8.47742C313.625 8.83188 313.103 9.12726 312.476 9.12726Z" fill="#545454"/>
<path d="M330.793 9.12726C330.167 9.12726 329.645 8.83188 329.645 8.47742V0.664493C329.645 0.310031 330.167 0.0146484 330.793 0.0146484C331.419 0.0146484 331.941 0.310031 331.941 0.664493V8.47742C331.941 8.83188 331.419 9.12726 330.793 9.12726Z" fill="#545454"/>
<path d="M339.973 9.12726C339.346 9.12726 338.824 8.83188 338.824 8.47742V0.664493C338.824 0.310031 339.346 0.0146484 339.973 0.0146484C340.599 0.0146484 341.121 0.310031 341.121 0.664493V8.47742C341.121 8.83188 340.599 9.12726 339.973 9.12726Z" fill="#545454"/>
<path d="M349.129 9.12726C348.502 9.12726 347.98 8.83188 347.98 8.47742V0.664493C347.98 0.310031 348.502 0.0146484 349.129 0.0146484C349.755 0.0146484 350.277 0.310031 350.277 0.664493V8.47742C350.277 8.83188 349.755 9.12726 349.129 9.12726Z" fill="#545454"/>
<path d="M358.285 9.12726C357.659 9.12726 357.137 8.83188 357.137 8.47742V0.664493C357.137 0.310031 357.659 0.0146484 358.285 0.0146484C358.911 0.0146484 359.433 0.310031 359.433 0.664493V8.47742C359.433 8.83188 358.911 9.12726 358.285 9.12726Z" fill="#545454"/>
<path d="M367.449 13.3502C366.823 13.3502 366.301 13.0548 366.301 12.7003V0.67817C366.301 0.323709 366.823 0.0283203 367.449 0.0283203C368.076 0.0283203 368.597 0.323709 368.597 0.67817V12.7003C368.597 13.0548 368.076 13.3502 367.449 13.3502Z" fill="#545454"/>
<path d="M376.59 9.12726C375.963 9.12726 375.441 8.83188 375.441 8.47742V0.664493C375.441 0.310031 375.963 0.0146484 376.59 0.0146484C377.216 0.0146484 377.738 0.310031 377.738 0.664493V8.47742C377.738 8.83188 377.216 9.12726 376.59 9.12726Z" fill="#545454"/>
<path d="M385.742 9.12726C385.116 9.12726 384.594 8.83188 384.594 8.47742V0.664493C384.594 0.310031 385.116 0.0146484 385.742 0.0146484C386.368 0.0146484 386.89 0.310031 386.89 0.664493V8.47742C386.89 8.83188 386.368 9.12726 385.742 9.12726Z" fill="#545454"/>
<path d="M394.906 9.12726C394.28 9.12726 393.758 8.83188 393.758 8.47742V0.664493C393.758 0.310031 394.28 0.0146484 394.906 0.0146484C395.533 0.0146484 396.055 0.310031 396.055 0.664493V8.47742C396.055 8.83188 395.533 9.12726 394.906 9.12726Z" fill="#545454"/>
<path d="M404.062 9.12726C403.436 9.12726 402.914 8.83188 402.914 8.47742V0.664493C402.914 0.310031 403.436 0.0146484 404.062 0.0146484C404.689 0.0146484 405.211 0.310031 405.211 0.664493V8.47742C405.211 8.83188 404.689 9.12726 404.062 9.12726Z" fill="#545454"/>
<path d="M413.226 13.3502C412.6 13.3502 412.078 13.0548 412.078 12.7003V0.67817C412.078 0.323709 412.6 0.0283203 413.226 0.0283203C413.853 0.0283203 414.375 0.323709 414.375 0.67817V12.7003C414.375 13.0548 413.853 13.3502 413.226 13.3502Z" fill="#545454"/>
<path d="M422.383 9.12726C421.756 9.12726 421.234 8.83188 421.234 8.47742V0.664493C421.234 0.310031 421.756 0.0146484 422.383 0.0146484C423.009 0.0146484 423.531 0.310031 423.531 0.664493V8.47742C423.531 8.83188 423.009 9.12726 422.383 9.12726Z" fill="#545454"/>
<path d="M431.551 9.12726C430.924 9.12726 430.402 8.83188 430.402 8.47742V0.664493C430.402 0.310031 430.924 0.0146484 431.551 0.0146484C432.177 0.0146484 432.699 0.310031 432.699 0.664493V8.47742C432.699 8.83188 432.177 9.12726 431.551 9.12726Z" fill="#545454"/>
<path d="M440.684 9.12726C440.057 9.12726 439.535 8.83188 439.535 8.47742V0.664493C439.535 0.310031 440.057 0.0146484 440.684 0.0146484C441.31 0.0146484 441.832 0.310031 441.832 0.664493V8.47742C441.832 8.83188 441.31 9.12726 440.684 9.12726Z" fill="#545454"/>
<path d="M449.848 9.12726C449.221 9.12726 448.699 8.83188 448.699 8.47742V0.664493C448.699 0.310031 449.221 0.0146484 449.848 0.0146484C450.474 0.0146484 450.996 0.310031 450.996 0.664493V8.47742C450.996 8.83188 450.474 9.12726 449.848 9.12726Z" fill="#545454"/>
<path d="M459.004 13.3502C458.377 13.3502 457.855 13.0548 457.855 12.7003V0.67817C457.855 0.323709 458.377 0.0283203 459.004 0.0283203C459.63 0.0283203 460.152 0.323709 460.152 0.67817V12.7003C460.152 13.0548 459.63 13.3502 459.004 13.3502Z" fill="#545454"/>
<path d="M468.168 9.12726C467.542 9.12726 467.02 8.83188 467.02 8.47742V0.664493C467.02 0.310031 467.542 0.0146484 468.168 0.0146484C468.794 0.0146484 469.316 0.310031 469.316 0.664493V8.47742C469.316 8.83188 468.794 9.12726 468.168 9.12726Z" fill="#545454"/>
<path d="M477.32 9.12726C476.694 9.12726 476.172 8.83188 476.172 8.47742V0.664493C476.172 0.310031 476.694 0.0146484 477.32 0.0146484C477.947 0.0146484 478.469 0.310031 478.469 0.664493V8.47742C478.469 8.83188 477.947 9.12726 477.32 9.12726Z" fill="#545454"/>
<path d="M486.488 9.12726C485.862 9.12726 485.34 8.83188 485.34 8.47742V0.664493C485.34 0.310031 485.862 0.0146484 486.488 0.0146484C487.115 0.0146484 487.637 0.310031 487.637 0.664493V8.47742C487.637 8.83188 487.115 9.12726 486.488 9.12726Z" fill="#545454"/>
<path d="M495.641 9.12726C495.014 9.12726 494.492 8.83188 494.492 8.47742V0.664493C494.492 0.310031 495.014 0.0146484 495.641 0.0146484C496.267 0.0146484 496.789 0.310031 496.789 0.664493V8.47742C496.789 8.83188 496.267 9.12726 495.641 9.12726Z" fill="#545454"/>
<path d="M504.769 13.3502C504.143 13.3502 503.621 13.0548 503.621 12.7003V0.67817C503.621 0.323709 504.143 0.0283203 504.769 0.0283203C505.396 0.0283203 505.918 0.323709 505.918 0.67817V12.7003C505.918 13.0548 505.396 13.3502 504.769 13.3502Z" fill="#545454"/>
<path d="M513.941 9.12726C513.315 9.12726 512.793 8.83188 512.793 8.47742V0.664493C512.793 0.310031 513.315 0.0146484 513.941 0.0146484C514.568 0.0146484 515.09 0.310031 515.09 0.664493V8.47742C515.09 8.83188 514.568 9.12726 513.941 9.12726Z" fill="#545454"/>
<path d="M523.086 9.12726C522.459 9.12726 521.938 8.83188 521.938 8.47742V0.664493C521.938 0.310031 522.459 0.0146484 523.086 0.0146484C523.712 0.0146484 524.234 0.310031 524.234 0.664493V8.47742C524.234 8.83188 523.712 9.12726 523.086 9.12726Z" fill="#545454"/>
<path d="M532.254 9.12726C531.627 9.12726 531.105 8.83188 531.105 8.47742V0.664493C531.105 0.310031 531.627 0.0146484 532.254 0.0146484C532.88 0.0146484 533.402 0.310031 533.402 0.664493V8.47742C533.402 8.83188 532.88 9.12726 532.254 9.12726Z" fill="#545454"/>
<path d="M541.418 9.12726C540.792 9.12726 540.27 8.83188 540.27 8.47742V0.664493C540.27 0.310031 540.792 0.0146484 541.418 0.0146484C542.044 0.0146484 542.566 0.310031 542.566 0.664493V8.47742C542.566 8.83188 542.044 9.12726 541.418 9.12726Z" fill="#545454"/>
<path d="M550.574 13.3502C549.948 13.3502 549.426 13.0548 549.426 12.7003V0.67817C549.426 0.323709 549.948 0.0283203 550.574 0.0283203C551.201 0.0283203 551.722 0.323709 551.722 0.67817V12.7003C551.722 13.0548 551.201 13.3502 550.574 13.3502Z" fill="#545454"/>
<path d="M559.742 9.12726C559.116 9.12726 558.594 8.83188 558.594 8.47742V0.664493C558.594 0.310031 559.116 0.0146484 559.742 0.0146484C560.368 0.0146484 560.89 0.310031 560.89 0.664493V8.47742C560.89 8.83188 560.368 9.12726 559.742 9.12726Z" fill="#545454"/>
<path d="M568.879 9.12726C568.252 9.12726 567.73 8.83188 567.73 8.47742V0.664493C567.73 0.310031 568.252 0.0146484 568.879 0.0146484C569.505 0.0146484 570.027 0.310031 570.027 0.664493V8.47742C570.027 8.83188 569.505 9.12726 568.879 9.12726Z" fill="#545454"/>
<path d="M578.031 9.12726C577.405 9.12726 576.883 8.83188 576.883 8.47742V0.664493C576.883 0.310031 577.405 0.0146484 578.031 0.0146484C578.658 0.0146484 579.179 0.310031 579.179 0.664493V8.47742C579.179 8.83188 578.658 9.12726 578.031 9.12726Z" fill="#545454"/>
<path d="M587.187 9.12726C586.561 9.12726 586.039 8.83188 586.039 8.47742V0.664493C586.039 0.310031 586.561 0.0146484 587.187 0.0146484C587.814 0.0146484 588.336 0.310031 588.336 0.664493V8.47742C588.336 8.83188 587.814 9.12726 587.187 9.12726Z" fill="#545454"/>
<path d="M596.348 13.3502C595.721 13.3502 595.199 13.0548 595.199 12.7003V0.67817C595.199 0.323709 595.721 0.0283203 596.348 0.0283203C596.974 0.0283203 597.496 0.323709 597.496 0.67817V12.7003C597.496 13.0548 596.974 13.3502 596.348 13.3502Z" fill="#545454"/>
<path d="M605.516 9.12726C604.889 9.12726 604.367 8.83188 604.367 8.47742V0.664493C604.367 0.310031 604.889 0.0146484 605.516 0.0146484C606.142 0.0146484 606.664 0.310031 606.664 0.664493V8.47742C606.664 8.83188 606.142 9.12726 605.516 9.12726Z" fill="#545454"/>
<path d="M614.672 9.12726C614.045 9.12726 613.523 8.83188 613.523 8.47742V0.664493C613.523 0.310031 614.045 0.0146484 614.672 0.0146484C615.298 0.0146484 615.82 0.310031 615.82 0.664493V8.47742C615.82 8.83188 615.298 9.12726 614.672 9.12726Z" fill="#545454"/>
<path d="M623.84 9.12726C623.213 9.12726 622.691 8.83188 622.691 8.47742V0.664493C622.691 0.310031 623.213 0.0146484 623.84 0.0146484C624.466 0.0146484 624.988 0.310031 624.988 0.664493V8.47742C624.988 8.83188 624.466 9.12726 623.84 9.12726Z" fill="#545454"/>
<path d="M632.973 9.12726C632.346 9.12726 631.824 8.83188 631.824 8.47742V0.664493C631.824 0.310031 632.346 0.0146484 632.973 0.0146484C633.599 0.0146484 634.121 0.310031 634.121 0.664493V8.47742C634.121 8.83188 633.599 9.12726 632.973 9.12726Z" fill="#545454"/>
<path d="M642.133 13.3502C641.506 13.3502 640.984 13.0548 640.984 12.7003V0.67817C640.984 0.323709 641.506 0.0283203 642.133 0.0283203C642.759 0.0283203 643.281 0.323709 643.281 0.67817V12.7003C643.281 13.0548 642.759 13.3502 642.133 13.3502Z" fill="#545454"/>
<path d="M651.293 9.12726C650.667 9.12726 650.145 8.83188 650.145 8.47742V0.664493C650.145 0.310031 650.667 0.0146484 651.293 0.0146484C651.919 0.0146484 652.441 0.310031 652.441 0.664493V8.47742C652.441 8.83188 651.919 9.12726 651.293 9.12726Z" fill="#545454"/>
<path d="M660.465 9.12726C659.838 9.12726 659.316 8.83188 659.316 8.47742V0.664493C659.316 0.310031 659.838 0.0146484 660.465 0.0146484C661.091 0.0146484 661.613 0.310031 661.613 0.664493V8.47742C661.613 8.83188 661.091 9.12726 660.465 9.12726Z" fill="#545454"/>
<path d="M669.605 9.12726C668.979 9.12726 668.457 8.83188 668.457 8.47742V0.664493C668.457 0.310031 668.979 0.0146484 669.605 0.0146484C670.232 0.0146484 670.754 0.310031 670.754 0.664493V8.47742C670.754 8.83188 670.232 9.12726 669.605 9.12726Z" fill="#545454"/>
<path d="M678.781 9.12726C678.155 9.12726 677.633 8.83188 677.633 8.47742V0.664493C677.633 0.310031 678.155 0.0146484 678.781 0.0146484C679.407 0.0146484 679.929 0.310031 679.929 0.664493V8.47742C679.929 8.83188 679.407 9.12726 678.781 9.12726Z" fill="#545454"/>
<path d="M687.937 13.3502C687.311 13.3502 686.789 13.0548 686.789 12.7003V0.67817C686.789 0.323709 687.311 0.0283203 687.937 0.0283203C688.564 0.0283203 689.086 0.323709 689.086 0.67817V12.7003C689.086 13.0548 688.564 13.3502 687.937 13.3502Z" fill="#545454"/>
<path d="M697.094 9.12726C696.467 9.12726 695.945 8.83188 695.945 8.47742V0.664493C695.945 0.310031 696.467 0.0146484 697.094 0.0146484C697.72 0.0146484 698.242 0.310031 698.242 0.664493V8.47742C698.242 8.83188 697.72 9.12726 697.094 9.12726Z" fill="#545454"/>
<path d="M706.226 9.12726C705.6 9.12726 705.078 8.83188 705.078 8.47742V0.664493C705.078 0.310031 705.6 0.0146484 706.226 0.0146484C706.853 0.0146484 707.375 0.310031 707.375 0.664493V8.47742C707.375 8.83188 706.853 9.12726 706.226 9.12726Z" fill="#545454"/>
<path d="M715.398 9.12726C714.772 9.12726 714.25 8.83188 714.25 8.47742V0.664493C714.25 0.310031 714.772 0.0146484 715.398 0.0146484C716.025 0.0146484 716.547 0.310031 716.547 0.664493V8.47742C716.547 8.83188 716.025 9.12726 715.398 9.12726Z" fill="#545454"/>
<path d="M724.547 9.12726C723.92 9.12726 723.398 8.83188 723.398 8.47742V0.664493C723.398 0.310031 723.92 0.0146484 724.547 0.0146484C725.173 0.0146484 725.695 0.310031 725.695 0.664493V8.47742C725.695 8.83188 725.173 9.12726 724.547 9.12726Z" fill="#545454"/>
<path d="M733.715 13.3502C733.088 13.3502 732.566 13.0548 732.566 12.7003V0.67817C732.566 0.323709 733.088 0.0283203 733.715 0.0283203C734.341 0.0283203 734.863 0.323709 734.863 0.67817V12.7003C734.863 13.0548 734.341 13.3502 733.715 13.3502Z" fill="#545454"/>
<path d="M742.879 9.12726C742.252 9.12726 741.73 8.83188 741.73 8.47742V0.664493C741.73 0.310031 742.252 0.0146484 742.879 0.0146484C743.505 0.0146484 744.027 0.310031 744.027 0.664493V8.47742C744.027 8.83188 743.505 9.12726 742.879 9.12726Z" fill="#545454"/>
<path d="M752.031 9.12726C751.405 9.12726 750.883 8.83188 750.883 8.47742V0.664493C750.883 0.310031 751.405 0.0146484 752.031 0.0146484C752.658 0.0146484 753.18 0.310031 753.18 0.664493V8.47742C753.18 8.83188 752.658 9.12726 752.031 9.12726Z" fill="#545454"/>
<path d="M761.199 9.12726C760.573 9.12726 760.051 8.83188 760.051 8.47742V0.664493C760.051 0.310031 760.573 0.0146484 761.199 0.0146484C761.826 0.0146484 762.347 0.310031 762.347 0.664493V8.47742C762.347 8.83188 761.826 9.12726 761.199 9.12726Z" fill="#545454"/>
<path d="M770.336 9.12726C769.709 9.12726 769.188 8.83188 769.188 8.47742V0.664493C769.188 0.310031 769.709 0.0146484 770.336 0.0146484C770.962 0.0146484 771.484 0.310031 771.484 0.664493V8.47742C771.484 8.83188 770.962 9.12726 770.336 9.12726Z" fill="#545454"/>
<path d="M779.492 13.3502C778.866 13.3502 778.344 13.0548 778.344 12.7003V0.67817C778.344 0.323709 778.866 0.0283203 779.492 0.0283203C780.118 0.0283203 780.64 0.323709 780.64 0.67817V12.7003C780.64 13.0548 780.118 13.3502 779.492 13.3502Z" fill="#545454"/>
<path d="M788.648 9.12726C788.022 9.12726 787.5 8.83188 787.5 8.47742V0.664493C787.5 0.310031 788.022 0.0146484 788.648 0.0146484C789.275 0.0146484 789.797 0.310031 789.797 0.664493V8.47742C789.797 8.83188 789.275 9.12726 788.648 9.12726Z" fill="#545454"/>
<path d="M797.812 9.12726C797.186 9.12726 796.664 8.83188 796.664 8.47742V0.664493C796.664 0.310031 797.186 0.0146484 797.812 0.0146484C798.439 0.0146484 798.961 0.310031 798.961 0.664493V8.47742C798.961 8.83188 798.439 9.12726 797.812 9.12726Z" fill="#545454"/>
<path d="M806.969 9.12726C806.342 9.12726 805.82 8.83188 805.82 8.47742V0.664493C805.82 0.310031 806.342 0.0146484 806.969 0.0146484C807.595 0.0146484 808.117 0.310031 808.117 0.664493V8.47742C808.117 8.83188 807.595 9.12726 806.969 9.12726Z" fill="#545454"/>
<path d="M816.133 9.12726C815.506 9.12726 814.984 8.83188 814.984 8.47742V0.664493C814.984 0.310031 815.506 0.0146484 816.133 0.0146484C816.759 0.0146484 817.281 0.310031 817.281 0.664493V8.47742C817.281 8.83188 816.759 9.12726 816.133 9.12726Z" fill="#545454"/>
<path d="M825.301 13.3502C824.674 13.3502 824.152 13.0548 824.152 12.7003V0.67817C824.152 0.323709 824.674 0.0283203 825.301 0.0283203C825.927 0.0283203 826.449 0.323709 826.449 0.67817V12.7003C826.449 13.0548 825.927 13.3502 825.301 13.3502Z" fill="#545454"/>
<path d="M834.426 9.12726C833.799 9.12726 833.277 8.83188 833.277 8.47742V0.664493C833.277 0.310031 833.799 0.0146484 834.426 0.0146484C835.052 0.0146484 835.574 0.310031 835.574 0.664493V8.47742C835.574 8.83188 835.052 9.12726 834.426 9.12726Z" fill="#545454"/>
<path d="M843.594 9.12726C842.967 9.12726 842.445 8.83188 842.445 8.47742V0.664493C842.445 0.310031 842.967 0.0146484 843.594 0.0146484C844.22 0.0146484 844.742 0.310031 844.742 0.664493V8.47742C844.742 8.83188 844.22 9.12726 843.594 9.12726Z" fill="#545454"/>
<path d="M852.754 9.12726C852.127 9.12726 851.605 8.83188 851.605 8.47742V0.664493C851.605 0.310031 852.127 0.0146484 852.754 0.0146484C853.38 0.0146484 853.902 0.310031 853.902 0.664493V8.47742C853.902 8.83188 853.38 9.12726 852.754 9.12726Z" fill="#545454"/>
<path d="M861.898 9.12726C861.272 9.12726 860.75 8.83188 860.75 8.47742V0.664493C860.75 0.310031 861.272 0.0146484 861.898 0.0146484C862.525 0.0146484 863.047 0.310031 863.047 0.664493V8.47742C863.047 8.83188 862.525 9.12726 861.898 9.12726Z" fill="#545454"/>
<path d="M871.074 13.3502C870.448 13.3502 869.926 13.0548 869.926 12.7003V0.67817C869.926 0.323709 870.448 0.0283203 871.074 0.0283203C871.701 0.0283203 872.222 0.323709 872.222 0.67817V12.7003C872.222 13.0548 871.701 13.3502 871.074 13.3502Z" fill="#545454"/>
<path d="M880.23 9.12726C879.604 9.12726 879.082 8.83188 879.082 8.47742V0.664493C879.082 0.310031 879.604 0.0146484 880.23 0.0146484C880.857 0.0146484 881.379 0.310031 881.379 0.664493V8.47742C881.379 8.83188 880.857 9.12726 880.23 9.12726Z" fill="#545454"/>
<path d="M889.398 9.12726C888.772 9.12726 888.25 8.83188 888.25 8.47742V0.664493C888.25 0.310031 888.772 0.0146484 889.398 0.0146484C890.025 0.0146484 890.547 0.310031 890.547 0.664493V8.47742C890.547 8.83188 890.025 9.12726 889.398 9.12726Z" fill="#545454"/>
<path d="M898.535 9.12726C897.909 9.12726 897.387 8.83188 897.387 8.47742V0.664493C897.387 0.310031 897.909 0.0146484 898.535 0.0146484C899.161 0.0146484 899.683 0.310031 899.683 0.664493V8.47742C899.683 8.83188 899.161 9.12726 898.535 9.12726Z" fill="#545454"/>
<path d="M907.691 9.12726C907.065 9.12726 906.543 8.83188 906.543 8.47742V0.664493C906.543 0.310031 907.065 0.0146484 907.691 0.0146484C908.318 0.0146484 908.84 0.310031 908.84 0.664493V8.47742C908.84 8.83188 908.318 9.12726 907.691 9.12726Z" fill="#545454"/>
<path d="M916.851 13.3502C916.225 13.3502 915.703 13.0548 915.703 12.7003V0.67817C915.703 0.323709 916.225 0.0283203 916.851 0.0283203C917.478 0.0283203 918 0.323709 918 0.67817V12.7003C918 13.0548 917.478 13.3502 916.851 13.3502Z" fill="#545454"/>
</svg>
